<?xml version="1.0" encoding="UTF-8" standalone="yes" ?>
<!DOCTYPE svg PUBLIC "-//W3C//DTD SVG 1.1//EN" 
  "http://www.w3.org/Graphics/SVG/1.1/DTD/svg11.dtd">
<svg viewBox="0 0 1150 720" transform="scale(1.3 1.06)" stroke="white" version="1.1"
     xmlns="http://www.w3.org/2000/svg">
     
     <!--球场框和中线-->
     <path d="M 575,20 L 50,20 50,700 1100,700 1100,20 575,20 575,700 z" stroke="white" stroke-width="2" fill="transparent" />
     <!--中线-->
     <circle cx="575" cy="360" r="91.5" stroke="white" stroke-width="2" fill-opacity="0" />
     <circle cx="575" cy="360" r="2" stroke="white" fill="white" />
     <!--罚球点-->
     <circle cx="160" cy="360" r="2" stroke="white" fill="white" />
     <circle cx="990" cy="360" r="2" stroke="white" fill="white" />
     <!--球门-->
    
     <!--球门区-->
     <path d="M 50,269.4 L 105,269.4 105,451.6 50 451.6 z" stroke="white" stroke-width="2" fill-opacity="0" />
     <path d="M 1100,269.4 L 1045,269.4 1045,451.6 1100,451.6 z" stroke="white" stroke-width="2" fill-opacity="0" />
     <!--禁区 -->
     <path d="M 50,159.4 L 215,159.4 215,561.6 50 561.6 z" stroke="white" stroke-width="2" fill-opacity="0" />
     <path d="M 1100,159.4 L 935,159.4 935,561.6 1100,561.6 z" stroke="white" stroke-width="2" fill-opacity="0" />

     <!--角球弧-->

</svg>